# xmcd CD database file
#
# Track frame offsets:
#	150
#	16150
#	31874
#	47081
#	64320
#	81892
#	96269
#	109909
#	128036
#	141675
#	155481
#	170462
#	184340
#	199803
#
# Disc length: 2876 seconds
#
# Revision: 0
# Processed by: cddbd v1.5.2PL0 Copyright (c) Steve Scherf et al.
# Submitted via: jetAudio 7
#
DISCID=c60b3a0e
DTITLE=Luis Miguel - Mis Boleros Favoritos
DYEAR=2002
DGENRE=other
TTITLE0=No Me Platiques Más
TTITLE1=La Barca
TTITLE2=La Gloria Eres Tú
TTITLE3=No Sé Tú
TTITLE4=Historia De Un Amor
TTITLE5=Somos Novios
TTITLE6=Solamenta Una Vez
TTITLE7=El Día Que Me Quieras
TTITLE8=El Reloj
TTITLE9=Por Debajo De La Mesa
TTITLE10=Encadenados
TTITLE11=Sabor A Mí
TTITLE12=Perfidia
TTITLE13=Hasta Que Vuelvas
EXTD=
EXTT0=
EXTT1=
EXTT2=
EXTT3=
EXTT4=
EXTT5=
EXTT6=
EXTT7=
EXTT8=
EXTT9=
EXTT10=
EXTT11=
EXTT12=
EXTT13=
PLAYORDER=
